<svg xmlns="http://www.w3.org/2000/svg" viewBox="0 0 100 100" width="100" height="100">
  <!-- Фон -->
  <circle cx="50" cy="50" r="50" fill="#121212"/>

  <!-- Морда кота -->
  <path d="M30,30 C30,20 70,20 70,30 C70,40 65,50 50,50 C35,50 30,40 30,30 Z" fill="#f5f5dc"/>

  <!-- Уши -->
  <path d="M35,30 L25,10 L40,25 Z" fill="#e0e0e0"/> <!-- Левое ухо -->
  <path d="M65,30 L75,10 L60,25 Z" fill="#e0e0e0"/> <!-- Правое ухо -->

  <!-- График вместо правого уха -->
  <path d="M60,25 L75,10" stroke="#16c784" stroke-width="3" fill="none"/>
  <polyline points="62,20 66,18 70,22 75,10" fill="none" stroke="#16c784" stroke-width="2"/>

  <!-- Глаза -->
  <circle cx="40" cy="35" r="3" fill="#000"/>
  <circle cx="60" cy="35" r="3" fill="#000"/>

  <!-- Рот -->
  <path d="M45,45 Q50,50 55,45" stroke="#000" stroke-width="1" fill="none"/>

  <!-- График баланса внизу -->
  <polyline points="30,70 40,65 50,68 60,60 70,65" fill="none" stroke="#f6465d" stroke-width="2.5"/>
  <circle cx="70" cy="65" r="2" fill="#f6465d"/>
</svg>